<mxfile host="app.diagrams.net" modified="2023-10-05T12:51:09.764Z" agent="Mozilla/5.0 (Macintosh; Intel Mac OS X 10_15_7) AppleWebKit/537.36 (KHTML, like Gecko) Chrome/117.0.0.0 Safari/537.36" etag="dqW7Uf7XxUE0lw9D0HBz" version="22.0.2" type="github">
  <diagram name="第 1 页" id="a78uESH1Y39-E5xgopGJ">
    <mxGraphModel dx="1026" dy="655" grid="0" gridSize="10" guides="1" tooltips="1" connect="1" arrows="1" fold="1" page="1" pageScale="1" pageWidth="827" pageHeight="1169" math="0" shadow="0">
      <root>
        <mxCell id="0" />
        <mxCell id="1" parent="0" />
        <mxCell id="3XsPRuxsyGJo95VSzq3t-22" value="" style="rounded=1;whiteSpace=wrap;html=1;" parent="1" vertex="1">
          <mxGeometry x="70" y="40" width="740" height="650" as="geometry" />
        </mxCell>
        <mxCell id="3XsPRuxsyGJo95VSzq3t-20" value="" style="rounded=1;whiteSpace=wrap;html=1;" parent="1" vertex="1">
          <mxGeometry x="430" y="130" width="340" height="510" as="geometry" />
        </mxCell>
        <mxCell id="3XsPRuxsyGJo95VSzq3t-19" value="" style="rounded=1;whiteSpace=wrap;html=1;" parent="1" vertex="1">
          <mxGeometry x="580" y="525" width="120" height="60" as="geometry" />
        </mxCell>
        <mxCell id="3XsPRuxsyGJo95VSzq3t-10" value="" style="rounded=1;whiteSpace=wrap;html=1;" parent="1" vertex="1">
          <mxGeometry x="110" y="130" width="270" height="380" as="geometry" />
        </mxCell>
        <mxCell id="3XsPRuxsyGJo95VSzq3t-4" value="" style="rounded=1;whiteSpace=wrap;html=1;" parent="1" vertex="1">
          <mxGeometry x="215" y="410" width="120" height="60" as="geometry" />
        </mxCell>
        <mxCell id="3XsPRuxsyGJo95VSzq3t-3" value="" style="rounded=1;whiteSpace=wrap;html=1;" parent="1" vertex="1">
          <mxGeometry x="189" y="410" width="120" height="60" as="geometry" />
        </mxCell>
        <mxCell id="3XsPRuxsyGJo95VSzq3t-2" value="TxnSql&lt;br&gt;txn_id + sql_id + sql" style="rounded=1;whiteSpace=wrap;html=1;" parent="1" vertex="1">
          <mxGeometry x="155" y="410" width="120" height="60" as="geometry" />
        </mxCell>
        <mxCell id="3XsPRuxsyGJo95VSzq3t-5" value="paranum" style="rounded=1;whiteSpace=wrap;html=1;" parent="1" vertex="1">
          <mxGeometry x="185" y="230" width="120" height="60" as="geometry" />
        </mxCell>
        <mxCell id="3XsPRuxsyGJo95VSzq3t-11" value="TestSequnence" style="text;html=1;strokeColor=none;fillColor=none;align=center;verticalAlign=middle;whiteSpace=wrap;rounded=0;" parent="1" vertex="1">
          <mxGeometry x="215" y="180" width="60" height="30" as="geometry" />
        </mxCell>
        <mxCell id="3XsPRuxsyGJo95VSzq3t-12" value="test_cast_type" style="rounded=1;whiteSpace=wrap;html=1;" parent="1" vertex="1">
          <mxGeometry x="185" y="320" width="120" height="60" as="geometry" />
        </mxCell>
        <mxCell id="3XsPRuxsyGJo95VSzq3t-14" value="test_cast_type" style="rounded=1;whiteSpace=wrap;html=1;" parent="1" vertex="1">
          <mxGeometry x="530" y="260" width="120" height="60" as="geometry" />
        </mxCell>
        <mxCell id="3XsPRuxsyGJo95VSzq3t-15" value="isolation" style="rounded=1;whiteSpace=wrap;html=1;" parent="1" vertex="1">
          <mxGeometry x="530" y="340" width="120" height="60" as="geometry" />
        </mxCell>
        <mxCell id="3XsPRuxsyGJo95VSzq3t-16" value="result_type" style="rounded=1;whiteSpace=wrap;html=1;" parent="1" vertex="1">
          <mxGeometry x="530" y="430" width="120" height="60" as="geometry" />
        </mxCell>
        <mxCell id="3XsPRuxsyGJo95VSzq3t-18" value="" style="rounded=1;whiteSpace=wrap;html=1;" parent="1" vertex="1">
          <mxGeometry x="530" y="525" width="120" height="60" as="geometry" />
        </mxCell>
        <mxCell id="3XsPRuxsyGJo95VSzq3t-17" value="expect_result_set&lt;br&gt;sql_id + expect_result" style="rounded=1;whiteSpace=wrap;html=1;" parent="1" vertex="1">
          <mxGeometry x="480" y="525" width="120" height="60" as="geometry" />
        </mxCell>
        <mxCell id="3XsPRuxsyGJo95VSzq3t-21" value="TextResult" style="text;html=1;strokeColor=none;fillColor=none;align=center;verticalAlign=middle;whiteSpace=wrap;rounded=0;" parent="1" vertex="1">
          <mxGeometry x="570" y="180" width="60" height="30" as="geometry" />
        </mxCell>
        <mxCell id="3XsPRuxsyGJo95VSzq3t-23" value="CaseReader" style="text;html=1;strokeColor=none;fillColor=none;align=center;verticalAlign=middle;whiteSpace=wrap;rounded=0;" parent="1" vertex="1">
          <mxGeometry x="410" y="80" width="60" height="30" as="geometry" />
        </mxCell>
      </root>
    </mxGraphModel>
  </diagram>
</mxfile>
